HIERARCHY
ROOT Hips
{
	OFFSET 0.000000 0.000000 0.000000
	CHANNELS 6 Xposition Yposition Zposition Xrotation Yrotation Zrotation
	JOINT LeftUpLeg_virtual
	{
		OFFSET 0.000000 0.000000 0.000000
		CHANNELS 3 Xrotation Yrotation Zrotation
		JOINT LeftUpLeg
		{
			OFFSET 11.394100 -6.187798 -0.413800
			CHANNELS 3 Xrotation Yrotation Zrotation
			JOINT LeftLeg
			{
				OFFSET 0.430247 -32.302673 3.732800
				CHANNELS 3 Xrotation Yrotation Zrotation
				JOINT LeftFoot
				{
					OFFSET -0.430247 -48.264931 -6.423300
					CHANNELS 3 Xrotation Yrotation Zrotation
					JOINT LeftToeBase
					{
						OFFSET 4.230900 -16.068199 23.438400
						CHANNELS 3 Xrotation Yrotation Zrotation
						JOINT LeftToe_End
						{
							OFFSET 4.510700 0.695400 19.974600
							CHANNELS 3 Xrotation Yrotation Zrotation
							End Site
							{
								OFFSET 0 0 0
							}
						}
					}
				}
			}
		}
	}
	JOINT RightUpLeg_virtual
	{
		OFFSET 0.000000 0.000000 0.000000
		CHANNELS 3 Xrotation Yrotation Zrotation
		JOINT RightUpLeg
		{
			OFFSET -11.333700 -6.187798 -0.413800
			CHANNELS 3 Xrotation Yrotation Zrotation
			JOINT RightLeg
			{
				OFFSET -0.430392 -32.302628 3.733000
				CHANNELS 3 Xrotation Yrotation Zrotation
				JOINT RightFoot
				{
					OFFSET 0.430392 -48.264973 -6.423500
					CHANNELS 3 Xrotation Yrotation Zrotation
					JOINT RightToeBase
					{
						OFFSET -4.230900 -16.068199 23.438400
						CHANNELS 3 Xrotation Yrotation Zrotation
						JOINT RightToe_End
						{
							OFFSET -4.510700 0.695400 19.974600
							CHANNELS 3 Xrotation Yrotation Zrotation
							End Site
							{
								OFFSET 0 0 0
							}
						}
					}
				}
			}
		}
	}
	JOINT Spine_virtual
	{
		OFFSET 0.000000 0.000000 0.000000
		CHANNELS 3 Xrotation Yrotation Zrotation
		JOINT Spine
		{
			OFFSET -0.002400 12.777504 0.315300
			CHANNELS 3 Xrotation Yrotation Zrotation
			JOINT Spine1
			{
				OFFSET -0.002067 5.816869 0.032633
				CHANNELS 3 Xrotation Yrotation Zrotation
				JOINT Spine1_split
				{
					OFFSET -0.002067 5.816869 0.032633
					CHANNELS 3 Xrotation Yrotation Zrotation
					JOINT Spine2
					{
						OFFSET -0.002067 5.816869 0.032633
						CHANNELS 3 Xrotation Yrotation Zrotation
						JOINT Neck_virtual
						{
							OFFSET 0.000000 0.000000 0.000000
							CHANNELS 3 Xrotation Yrotation Zrotation
							JOINT Neck
							{
								OFFSET -0.003700 21.199493 -0.826900
								CHANNELS 3 Xrotation Yrotation Zrotation
								JOINT Head
								{
									OFFSET 0.000000 20.442200 4.834800
									CHANNELS 3 Xrotation Yrotation Zrotation
									JOINT HeadTop_End
									{
										OFFSET 0.000000 34.668396 4.968400
										CHANNELS 3 Xrotation Yrotation Zrotation
										End Site
										{
											OFFSET 0 0 0
										}
									}
								}
							}
						}
						JOINT LeftShoulder_virtual
						{
							OFFSET 0.000000 0.000000 0.000000
							CHANNELS 3 Xrotation Yrotation Zrotation
							JOINT LeftShoulder
							{
								OFFSET 3.288150 8.794197 -1.372250
								CHANNELS 3 Xrotation Yrotation Zrotation
								JOINT LeftShoulder_split
								{
									OFFSET 3.288150 8.794197 -1.372250
									CHANNELS 3 Xrotation Yrotation Zrotation
									JOINT LeftArm
									{
										OFFSET 11.953299 -2.279007 -0.146200
										CHANNELS 3 Xrotation Yrotation Zrotation
										JOINT LeftForeArm
										{
											OFFSET 18.448900 0.000000 0.000000
											CHANNELS 3 Xrotation Yrotation Zrotation
											JOINT LeftHand
											{
												OFFSET 29.527798 0.000000 0.000000
												CHANNELS 3 Xrotation Yrotation Zrotation
												End Site
												{
													OFFSET 0 0 0
												}
											}
										}
									}
								}
							}
						}
						JOINT RightShoulder_virtual
						{
							OFFSET 0.000000 0.000000 0.000000
							CHANNELS 3 Xrotation Yrotation Zrotation
							JOINT RightShoulder
							{
								OFFSET -3.249400 8.794197 -1.372250
								CHANNELS 3 Xrotation Yrotation Zrotation
								JOINT RightShoulder_split
								{
									OFFSET -3.249400 8.794197 -1.372250
									CHANNELS 3 Xrotation Yrotation Zrotation
									JOINT RightArm
									{
										OFFSET -11.953299 -2.279007 -0.146200
										CHANNELS 3 Xrotation Yrotation Zrotation
										JOINT RightForeArm
										{
											OFFSET -18.448900 0.000000 0.000000
											CHANNELS 3 Xrotation Yrotation Zrotation
											JOINT RightHand
											{
												OFFSET -29.527802 0.000000 0.000000
												CHANNELS 3 Xrotation Yrotation Zrotation
												End Site
												{
													OFFSET 0 0 0
												}
											}
										}
									}
								}
							}
						}
					}
				}
			}
		}
	}
}
MOTION
Frames: 4
Frame Time: 0.03333333
2.860118 91.163460 2.403702 0.000000 0.000000 0.000000 5.187989 -28.499823 -0.137057 -58.910675 6.392816 15.507461 38.181471 -24.130403 5.339481 -1.918608 -4.908883 -9.393657 -6.532481 0.180026 4.985298 0.000000 0.000000 0.000000 1.795674 -23.514347 -0.350518 -22.267706 -17.194356 -32.119590 9.737538 -11.852620 -3.010859 11.532674 -4.081161 22.011365 -24.311768 -9.424578 6.634103 0.000000 0.000000 0.000000 2.245456 -32.327299 -1.001384 21.237355 -1.605333 -4.845000 6.284651 -1.890755 1.233935 4.417308 -17.181466 6.015943 0.000000 0.000000 0.000000 6.935925 -0.640330 -1.011026 17.743884 10.539254 13.774082 -35.680696 27.400101 21.036651 0.000000 0.000000 0.000000 8.682466 -1.271580 0.133663 -1.037341 -12.071222 -18.672291 -1.405842 -1.879306 -1.542081 -37.413485 31.815066 -17.401193 3.603399 -16.577067 -4.884924 0.000000 0.000000 0.000000 6.514130 -1.054004 0.049750 -0.398068 -12.729623 22.321654 -14.429386 -6.193073 0.177944 19.577214 15.068704 33.722218 5.017785 51.584847 8.667250 0.000000 0.000000 0.000000 
0.665245 92.144279 3.068188 0.000000 0.000000 0.000000 5.558347 -24.323579 0.057820 -59.008005 10.509137 15.394913 38.481101 -25.515942 4.517478 3.723396 -6.705118 -9.576522 -6.975485 -0.240314 5.802183 0.000000 0.000000 0.000000 2.257579 -20.769104 0.459102 -19.277353 -14.598978 -29.094646 16.135642 -11.549109 -2.643070 9.770954 -4.267173 20.391651 -21.454051 -9.281744 8.062728 0.000000 0.000000 0.000000 2.440904 -28.734971 0.293893 19.040981 -1.355046 -5.135299 6.436356 -1.306798 1.533083 4.968472 -11.858396 5.957509 0.000000 0.000000 0.000000 5.779554 -0.332515 -0.716907 20.294640 9.969002 12.363384 -33.403925 25.630785 20.939205 0.000000 0.000000 0.000000 7.990044 -0.665049 0.198762 -0.569989 -9.732515 -18.912184 -0.293643 -0.946871 -0.373670 -40.897294 30.999182 -16.011992 2.118309 -23.470804 -5.601252 0.000000 0.000000 0.000000 6.169156 -0.574294 0.193766 -1.351767 -9.964060 22.797196 -14.988544 -2.640276 0.628324 17.610601 16.137019 35.049655 5.933520 50.933315 8.424790 0.000000 0.000000 0.000000 
-1.976698 93.819000 3.952103 0.000000 0.000000 0.000000 5.557692 -14.957226 1.319397 -56.167893 15.256641 12.550329 33.943100 -26.285105 1.151981 13.389712 -9.547305 -8.790164 -7.205930 -1.092197 8.015020 0.000000 0.000000 0.000000 2.743927 -13.384167 2.149925 -13.213411 -10.334738 -24.735515 24.507417 -9.818176 -2.396342 9.585199 -2.652900 20.481104 -22.919758 -8.169893 7.055738 0.000000 0.000000 0.000000 3.120153 -20.328407 2.422464 15.683246 -0.454970 -5.366619 5.492408 0.203290 2.403918 5.466096 -7.906807 4.628871 0.000000 0.000000 0.000000 3.707366 1.025374 0.351444 24.461153 9.005005 10.415262 -26.207009 21.526596 18.458813 0.000000 0.000000 0.000000 6.207028 1.075751 1.074999 0.029505 -6.308145 -18.146631 0.670158 0.027102 0.446273 -39.930010 26.961982 -16.099065 3.876561 -33.425013 -3.503689 0.000000 0.000000 0.000000 4.808868 1.054260 1.120235 -1.999276 -7.141937 24.106637 -14.187561 -0.963309 -0.262004 15.335675 16.571185 34.692686 10.268196 48.822172 5.571330 0.000000 0.000000 0.000000 
-4.549917 95.525887 4.914776 0.000000 0.000000 0.000000 4.938476 -2.821154 3.287622 -50.743104 18.722163 7.387831 26.537407 -25.590079 -3.314723 24.221586 -11.326440 -6.181041 -7.965315 -2.126950 10.463130 0.000000 0.000000 0.000000 2.913549 -2.721845 4.245976 -5.095822 -5.652726 -20.023509 31.082166 -7.422174 -2.660661 9.824951 0.187326 20.583953 -26.521884 -6.046191 4.326095 0.000000 0.000000 0.000000 3.330662 -8.907219 4.765435 11.851862 0.908958 -5.343035 3.603604 2.374217 3.570888 4.754214 -4.503143 2.673793 0.000000 0.000000 0.000000 1.084788 3.159986 1.865226 28.878740 8.229442 8.260748 -16.537537 15.562523 15.141127 0.000000 0.000000 0.000000 3.625889 3.543179 2.329341 0.491320 -2.439392 -16.640040 1.745934 1.286570 1.203194 -36.481198 19.104497 -16.948606 8.556426 -39.648302 1.682439 0.000000 0.000000 0.000000 2.655025 3.472095 2.451125 -2.353852 -4.794600 25.561742 -12.167337 -1.431483 -1.574987 13.926556 15.664117 32.282834 16.419686 44.685297 1.442703 0.000000 0.000000 0.000000 
